<svg version="1" xmlns="http://www.w3.org/2000/svg" width="666.667" height="666.667" viewBox="0 0 500.000000 500.000000"><path d="M62 141.4c0 13.9.2 15.5 1.8 16 .9.2 6.1 1.4 11.5 2.6l9.7 2.2-.2 90.6-.3 90.6-11.2 2.5-11.3 2.6V379h52.8c56.9-.1 61.4-.4 74.7-5.4 23.9-9.1 44.2-31.4 52.8-58.1 5.8-17.7 6.2-21.9 6.2-62 0-39.4-.6-45.5-5.6-61.4-8.2-25.8-24.7-46.1-46.7-57.1-15.9-8.1-24-8.9-86.9-9H62v15.4zm106.5 25.8c17.4 4.5 30.1 20.4 35 44 1.2 5.3 1.5 15.1 1.5 41.6 0 30.7-.3 35.7-2 43.5-5 22.9-18.8 38.7-36.8 42.6-2.9.6-12.7 1.1-21.7 1.1H128V165l18.3.6c10 .3 20 1 22.2 1.6zM283.4 127.3c-.2.7-.3 7.8-.2 15.7l.3 14.4 11.3 2.4 11.2 2.5v90.9c0 85.6-.1 90.8-1.7 90.8-1 0-6.2 1-11.5 2.2l-9.8 2.2V379h161v-71h-32.8l-.6 10.7c-.4 6-.9 13.2-1.3 16l-.5 5.3H349V162.3l10.3-2.2c5.6-1.3 10.8-2.4 11.5-2.7 1-.3 1.2-3.9 1-15.6l-.3-15.3-43.8-.3c-35.4-.2-43.8 0-44.3 1.1z"/></svg>